<?xml version="1.0" encoding="utf-8"?>
<!-- Generator: Adobe Illustrator 26.0.1, SVG Export Plug-In . SVG Version: 6.00 Build 0)  -->
<svg version="1.1" id="Layer_1" xmlns="http://www.w3.org/2000/svg" xmlns:xlink="http://www.w3.org/1999/xlink" x="0px" y="0px"
	 viewBox="0 0 365 131.7" style="enable-background:new 0 0 365 131.7;" xml:space="preserve">
<style type="text/css">
	.st0{enable-background:new    ;}
	.st1{fill:none;stroke:#000000;stroke-width:3;stroke-linecap:round;stroke-linejoin:round;}
	.st2{fill:none;stroke:#000000;stroke-width:4;stroke-linecap:round;stroke-linejoin:round;}
	.st3{fill:#FFFFFF;}
	.st4{fill:none;stroke:#FFFFFF;stroke-width:4;stroke-linecap:round;stroke-linejoin:round;}
</style>
<g id="Layer_2_00000109009429333422951340000007970259013647654320_">
	<g class="st0">
		<path class="st3" d="M129.9,19.6c5.2-1.3,13.3-2,24.4-2c1.6,0,2.9,0.1,3.9,0.2s1.5,0.5,1.5,1.2c0,0.9-0.4,1.6-1.1,2.1
			c-0.2,0.2-0.5,0.2-0.8,0.2h-5.4c-11.2,0-18.9,0.7-23,2.1c-1,3.6-2.2,8.9-3.7,15.9c-1.4,7-2.4,11.7-3.1,14.3
			c1.7,0.2,5.4,0.3,10.9,0.3c5.6,0,9.3-0.1,11.2-0.2c0.9,0.3,1.4,0.7,1.4,1.3c0,1.1-0.5,1.8-1.6,2.1s-2.7,0.5-5.1,0.5l-17.6-0.4
			c-0.9,3.2-2.2,8.8-3.9,16.6c-1.7,7.9-3.1,13.7-4.3,17.6l30.9,0.6c2.7,0,4.5-0.1,5.5-0.2c0.9,0.3,1.4,0.7,1.4,1.3
			c0,1.1-0.6,1.8-1.8,2.1c-0.8,0.2-2.4,0.4-4.8,0.4s-5.1,0-8.2-0.1c-3.1-0.1-6-0.2-8.9-0.3c-2.9-0.1-5.5-0.2-7.9-0.3
			c-2.4-0.1-4.4-0.1-6-0.1l-2.7,0.2c-0.9,0-1.5-0.2-1.8-0.6c-0.3-0.4-0.4-0.7-0.4-1.1c0-0.3,0.1-0.7,0.3-0.9
			c0.2-0.3,0.4-0.7,0.7-1.4c0.3-0.6,0.6-1.5,1-2.6c0.7-2,1.4-4.6,2.1-7.8s2.1-9.8,4.2-19.6c2.1-9.9,4.7-21.9,7.8-36
			c-0.9-0.1-1.3-0.6-1.3-1.5c0-1,0.8-1.8,2.3-2.7c0-1.7,0.8-2.5,2.4-2.5C129.3,18.4,129.7,18.8,129.9,19.6z"/>
		<path class="st3" d="M182.2,63.4c0-2.6-0.7-3.9-2.1-3.9c-1.9,0-5.5,5.4-10.7,16.1c-2.4,4.9-4.1,8.5-5,11c-1,2.5-1.7,4.2-2.1,5.3
			s-0.9,1.8-1.4,2.3c-0.5,0.5-1,0.8-1.5,0.8c-0.6,0-0.9-0.1-1-0.4c-0.1-0.3-0.2-0.8-0.2-1.5c0-0.7,1-6.9,3.1-18.4
			c2.1-11.6,3.3-17.7,3.6-18.3c0.3-0.6,0.6-1,0.9-1.2c0.3-0.2,0.7-0.3,1.4-0.3c0.7,0,1.2,0.3,1.6,0.8c0.4,0.5,0.6,1,0.6,1.4
			c0,0.4-0.1,0.8-0.2,1.2c-0.2,0.7-0.5,1.6-0.8,2.6c-1.2,3.6-2.4,8.6-3.6,15.2l-0.8,4.7c0.6-1.2,1.3-2.8,2-4.5
			c0.8-1.8,1.9-4.3,3.4-7.6s3.1-6.2,5-8.8c2.3-3.4,4.5-5.1,6.6-5.1c3.6,0,5.4,2.9,5.4,8.6c0,2.2-0.3,4.9-0.9,8.1
			c-0.6,3.2-1.3,6.8-2,10.6s-1.2,7-1.2,9.5l-0.5,2.1c0,0.6-0.1,1-0.3,1.2c-0.2,0.2-0.7,0.4-1.5,0.4c-0.8,0-1.5-0.2-1.8-0.5
			c-0.4-0.3-0.5-0.9-0.4-1.7l3.9-23.4C181.9,67.1,182.2,64.9,182.2,63.4z"/>
		<path class="st3" d="M218.5,55.3c0.9,0,1.3,0.4,1.3,1.3c0,0.9-0.2,1.7-0.5,2.6c-0.3,0.8-0.6,1.9-1,3.2c-0.4,1.3-0.9,3.3-1.5,6
			c-0.7,2.7-1.3,5.4-1.9,8.2s-1.2,5.5-1.8,8.3c-0.6,2.8-1.2,5.4-1.7,8c1-0.7,2-1.5,2.9-2.3c1-0.9,1.8-1.6,2.5-2.1
			c0.7-0.5,1.2-0.8,1.7-0.8c1,0,1.5,0.4,1.5,1.3c0,0.7-0.2,1.2-0.7,1.6c-3.3,2.5-6.1,4.6-8.4,6.2l-2.3,11.8c-1.6,7.9-3.6,13.3-6,16
			c-1.9,2.1-4.2,3.2-6.7,3.2s-4.7-0.9-6.4-2.6c-1.7-1.7-2.6-4-2.6-6.9c0-4.2,2.1-8.1,6.4-11.9c1.7-1.5,4.1-3.3,7.1-5.5
			c3-2.2,5.3-3.9,7-5.4c0.2-1.2,0.5-2.5,0.8-3.8c0.3-1.4,0.6-2.7,0.9-3.8c0.3-1.1,0.5-2.3,0.8-3.4c0.3-1.1,0.5-2.2,0.7-3.2
			c0.2-1,0.4-1.9,0.6-2.6c-1.4,4.6-2.9,8.1-4.5,10.5c-2.8,4.3-5.2,6.5-7.2,6.5c-2,0-3.6-0.7-4.8-2.2s-1.8-3.5-1.8-5.9
			c0-4.6,0.9-9.4,2.6-14.5c1.7-5.1,4.1-9.5,7.1-13.2c3-3.7,6.3-5.5,9.9-5.5c1.8,0,3.5,0.4,4.9,1.2C217.8,55.4,218.1,55.3,218.5,55.3
			z M206.7,99.9c-2,1.6-3.9,3.1-5.8,4.6s-3.6,2.9-5.1,4.3c-3.3,3.2-5,6.2-5,9.1s0.6,4.7,1.9,5.4c0.5,0.3,1.4,0.5,2.5,0.5
			c2.3,0,4.2-1.2,5.8-3.7c1.6-2.5,3.1-7.1,4.6-13.8L206.7,99.9z M199.1,73.6c-1.7,4.6-2.5,8.7-2.5,12.5s1,5.7,3,5.7
			c1.7,0,3.8-1.7,6-5c2.3-3.4,4.1-7.4,5.5-12.1c1.4-4.7,2.4-8.3,3.1-10.9c0.7-2.6,1.2-4.4,1.4-5.3c-0.8-0.7-1.9-1.1-3.1-1.1
			c-2.4,0-4.8,1.5-7.3,4.6C202.8,65.2,200.7,69,199.1,73.6z"/>
		<path class="st3" d="M236.2,90.1c1.2,0,1.8,0.6,1.8,1.8c0,1.2-0.8,2.1-2.3,2.8c-1.5,0.7-3.3,1-5.3,1s-3.5-0.5-4.4-1.6
			s-1.4-2.4-1.4-3.9c0-1.5,0.1-2.9,0.3-4.2c0.2-1.3,0.5-3.1,0.9-5.4c0.4-2.3,0.9-4.9,1.4-7.7c0.5-2.9,1.2-5.9,1.8-9.2
			c0.7-3.3,1.4-6.6,2.1-10c0.7-3.4,1.4-6.8,2.1-10.2c0.7-3.4,1.4-6.6,2.1-9.6c0.7-3,1.2-5.8,1.8-8.4s1-4.7,1.4-6.4
			c0.2-0.8,0.8-1.2,1.8-1.2c1.1,0,1.7,0.6,1.7,1.8v1c-1,4.9-2,9.6-3,14.2c-1,4.6-2.7,12.6-5.1,24c-2.4,11.4-3.9,19.1-4.6,23.1
			c-0.7,4-1,6.4-1,7.2c0,0.8,0.2,1.5,0.7,2.1c0.5,0.6,1.1,0.9,1.7,0.9s1.3-0.1,1.8-0.3c0.5-0.2,1.1-0.5,1.6-0.7
			c0.5-0.2,1-0.5,1.4-0.7C235.9,90.2,236.1,90.1,236.2,90.1z"/>
		<path class="st3" d="M262.1,88.4c0.9,0,1.4,0.5,1.4,1.4c0,1.1-1.4,2.4-4.1,3.8s-5,2.1-6.8,2.1c-1.8,0-3.2-0.3-4.1-0.9
			c-0.9-0.6-1.7-1.4-2.2-2.5c-1.1-2.1-1.7-4.6-1.7-7.5c0-5.2,0.8-10.1,2.3-14.7s3.6-8.4,6.2-11.5c2.6-3,5.4-4.6,8.4-4.6
			c1.6,0,2.9,0.7,3.8,2c0.9,1.3,1.4,2.9,1.4,4.7c0,3.4-0.9,6.3-2.7,8.7c-1.8,2.4-4,4.3-6.6,5.8c-2.6,1.5-5.6,2.9-9,4.3l-0.2,5.7
			c0,4.5,1.4,6.7,4.1,6.7c1.5,0,3-0.4,4.6-1.3c1.6-0.8,2.8-1.5,3.5-1.8C261.2,88.6,261.7,88.4,262.1,88.4z M263.1,61
			c0-2.1-0.9-3.1-2.6-3.1c-1.6,0-3.4,1.4-5.5,4.2s-3.9,6.5-5.2,11.1c-0.3,1.1-0.5,2-0.6,2.5c1-0.6,2.1-1.1,3.2-1.6
			c1.1-0.5,2.2-1.1,3.2-1.6c2.4-1.3,4.3-2.9,5.6-4.7C262.4,66,263.1,63.8,263.1,61z"/>
		<path class="st3" d="M271,94.8l1.8-9.5c0.9-4.9,1.6-8.3,1.9-10.4c0.3-2,0.7-4.3,1.2-6.8s1.3-6,2.6-10.6c-0.1-0.1-0.1-0.2-0.1-0.4
			v-0.4c0-1.2,0.5-2.1,1.4-2.7c0.3-0.2,0.6-0.3,0.9-0.3c1.1,0,1.7,0.8,1.7,2.4c0,0.9-0.4,2.6-1.1,5.1c-0.8,2.4-1.3,4.7-1.8,6.8
			c0.4-0.6,0.8-1.4,1.3-2.3c0.5-0.9,1.4-2.2,2.5-4c1.2-1.7,2.6-3.4,4.4-5c1.8-1.6,3.6-2.4,5.4-2.4s3.2,0.5,4.2,1.5
			c0.4,0.3,0.5,0.8,0.5,1.3c0,0.5-0.2,1-0.7,1.4c-0.5,0.4-1,0.6-1.4,0.6c-0.5,0-1-0.1-1.4-0.4s-1-0.4-1.6-0.4
			c-0.6,0-1.5,0.5-2.7,1.4c-5,3.6-9.1,10.8-12.3,21.5c-0.9,2.9-1.4,4.8-1.6,5.9c-0.2,1.1-0.3,2-0.5,2.6c-0.8,4.2-2,6.3-3.6,6.3
			C271.4,96.3,271,95.8,271,94.8z"/>
		<path class="st3" d="M316.9,54.6c4.9,0,7.4,3.7,7.4,11.2c0,5.8-1.6,12-4.8,18.7c-2.2,4.5-4.8,7.7-7.8,9.7c-1.6,1-3.2,1.5-4.8,1.5
			c-2.9,0-5.1-1.2-6.3-3.5c-1.3-2.3-1.9-4.9-1.9-7.6c0-4.8,0.8-9.5,2.4-14.1c1.6-4.6,3.8-8.3,6.6-11.4
			C310.5,56.1,313.5,54.6,316.9,54.6z M306.4,67.5c-2.8,5.6-4.2,11.1-4.2,16.5c0,3.7,1,6.2,3.1,7.5c0.6,0.4,1.3,0.6,2.1,0.6
			c1.7,0,3.5-1.4,5.6-4.3c2.1-2.9,3.8-6.5,5.2-10.7c1.4-4.2,2.1-7.9,2.1-10.9c0-3-0.2-5-0.5-5.8c-0.4-0.8-0.8-1.4-1.2-1.7
			c-0.5-0.3-1.2-0.5-2.3-0.5s-2.2,0.4-3.5,1.2C310.5,61.1,308.3,63.8,306.4,67.5z"/>
		<path class="st3" d="M353.1,58.2l3.8-16.8c0.3-1.2,0.9-4.3,1.9-9.3c1-5,1.7-8.5,2.2-10.4l0.2-1c0-0.7,0.2-1.3,0.7-1.7
			c0.5-0.5,0.9-0.7,1.4-0.7c1.1,0,1.7,0.6,1.7,1.8v0.4c0,1.3-0.9,6.1-2.8,14.6s-3,14.4-3.6,17.8s-1.6,8.2-3.1,14.4
			s-2.5,10.3-2.9,12.5c-0.4,2.2-0.8,4-1.1,5.5c-0.4,1.5-0.5,3-0.5,4.5s0.2,3,0.7,4.5c-0.1,0.6-0.4,1.2-0.9,1.6
			c-0.5,0.4-1,0.6-1.4,0.6c-0.7,0-1.3-0.8-1.8-2.4c-0.5-1.6-0.7-2.9-0.7-4c0-1.1,0.2-2.3,0.5-3.8c-1.1,3.2-2.4,5.6-4.1,7.2
			c-1.7,1.5-3.9,2.3-6.7,2.3c-2.7,0-4.7-1.1-5.9-3.4c-1.2-2.3-1.7-4.5-1.7-6.6c0-8,1.5-14.7,4.5-20.2c1.4-2.6,2.6-4.4,3.7-5.7
			c1.1-1.2,2.5-2.4,4.2-3.5c1.7-1.1,3.8-1.7,6.2-1.7C350.2,54.6,352,55.8,353.1,58.2z M350.2,70.8c0.4-2.1,0.7-3.5,0.8-4.1
			s0.2-1.5,0.2-2.9c0-1.3-0.4-2.6-1.2-3.9c-0.8-1.3-1.9-1.9-3.3-1.9c-2.6,0-4.9,1.6-7,4.8c-2.1,3.2-3.8,7-5.1,11.2
			c-1.3,4.3-1.9,7.9-1.9,10.8c0,2.9,0.8,5,2.5,6.3c0.5,0.4,1.3,0.6,2.2,0.6c1.8,0,3.8-1.6,5.9-4.7c2.1-3.2,3.7-6.1,4.7-8.9
			C349.1,75.3,349.8,72.9,350.2,70.8z"/>
	</g>
	<path class="st4" d="M43.4,31.8c0,0,0.4-28.3,28.1-29.8c4.3,1.3-2,7.1-2,7.1s18.2,2,0,12.6c6.7,2.5,5.4,5.7-1.2,10.1
		C73,36,68,42,64.1,42.2c-0.7-4.7-5.9-6.7-16.2-1.8c-11.9,6-9.1,16.2-9.1,16.2s-5.7,3.5-8.9-3.4c-8.9,4.3-11.6-2.5-9.4-7.1
		C9.4,52,5.7,50.8,9.4,39.9c-9.9,1.2-10.8-8.1,2.7-11.3C35.8,21.7,43.4,31.8,43.4,31.8z"/>
	<path class="st4" d="M64.1,42.2c0,0,2,6.8,4.4,16.2c4.9,18.8,11.9,48.2,9.1,54.3c-12.2,0-38.9-56-38.9-56"/>
	<line class="st4" x1="61.6" y1="63.8" x2="68.5" y2="58.4"/>
	<line class="st4" x1="70.4" y1="91.1" x2="75.6" y2="88.6"/>
	<line class="st4" x1="70.4" y1="101.7" x2="66.8" y2="104.4"/>
	<line class="st4" x1="60.2" y1="77.4" x2="52" y2="81.8"/>
	<line class="st4" x1="52" y1="56.8" x2="41.2" y2="61.6"/>
</g>
</svg>
