<?xml version="1.0" encoding="UTF-8"?><svg id="Layer_2" xmlns="http://www.w3.org/2000/svg" viewBox="0 0 368.76 242.19"><defs><style>.cls-1{fill:#fff;}.cls-2,.cls-3{stroke-width:12px;}.cls-2,.cls-3,.cls-4{fill:none;stroke:#fff;}.cls-2,.cls-4{stroke-linecap:round;stroke-linejoin:round;}.cls-3{stroke-miterlimit:10;}.cls-4{stroke-width:10.7px;}</style></defs><g id="Layer_1-2"><g><path class="cls-3" d="M282.53,65.24h52.26c15.44,0,27.97,12.53,27.97,27.97v115.01c0,15.44-12.53,27.97-27.97,27.97h-57.5c-12.54,0-22.72-10.18-22.72-22.72V93.21c0-15.44,12.53-27.97,27.97-27.97Z"/><rect class="cls-1" x="6" y="120.98" width="31.97" height="12"/><rect class="cls-1" x="68.9" y="120.98" width="110.7" height="12"/><rect class="cls-1" x="213.1" y="120.98" width="148.08" height="12"/><path class="cls-2" d="M334.79,65.24h-113.45V17.59c0-6.4-5.19-11.59-11.59-11.59H120.2c-6.4,0-11.59,5.19-11.59,11.59v47.65H33.97c-15.45,0-27.97,12.52-27.97,27.97v115.01c0,15.45,12.52,27.97,27.97,27.97H334.79c15.45,0,27.97-12.52,27.97-27.97V93.21c0-15.45-12.52-27.97-27.97-27.97ZM134.72,32.11h60.51v33.13h-60.51V32.11Z"/><path class="cls-4" d="M185.36,108.99c-2.9,0-5.26,2.35-5.26,5.26v29.55c0,5.24,7.25,9.49,16.2,9.49s16.2-4.25,16.2-9.49v-29.55c0-2.9-2.35-5.26-5.26-5.26h-21.88Z"/><path class="cls-4" d="M43.23,108.99c-2.9,0-5.26,2.35-5.26,5.26v29.55c0,5.24,7.25,9.49,16.2,9.49s16.2-4.25,16.2-9.49v-29.55c0-2.9-2.35-5.26-5.26-5.26h-21.88Z"/></g></g></svg>