<svg xmlns="http://www.w3.org/2000/svg" viewBox="0 0 190.4 37.6">
    <defs>
        <style>
            .cls-1 {
                isolation: isolate;
            }

            .cls-2 {
                fill: #fff;
            }
        </style>
    </defs>
    <g id="Layer_2" data-name="Layer 2">
        <g id="Layer_1-2" data-name="Layer 1">
            <g id="Layer_2-2" data-name="Layer 2">
                <g class="cls-1">
                    <path class="cls-2"
                        d="M45.1,7.4h5a11,11,0,0,1,6.8,2,6.35,6.35,0,0,1,2.6,5.2A6.81,6.81,0,0,1,56.8,20c-1.8,1.4-4.6,2.1-8.3,2.1V37.6H45.1Zm3.3,3v8.7A12,12,0,0,0,54.1,18a3.38,3.38,0,0,0,1.8-3.3,3.89,3.89,0,0,0-1.4-3C53.6,10.8,51.6,10.4,48.4,10.4Z" />
                    <path class="cls-2" d="M64.2,7.4h3.4V32.3H64.2Z" />
                    <path class="cls-2" d="M72.8,6.4,91.2,25.3V7.4h3.4v26L76.2,14.6V32.3H72.8Z" />
                    <path class="cls-2"
                        d="M99.7,7.4h3.4V17.5L113.7,7.4h4.7l-12,11.5,12.1,13.3h-4.3l-11-12.1V32.2H99.8V7.4Z" />
                    <path class="cls-2" d="M120.3,7.4h15.2v3.4h-5.9V37.6h-3.4V10.8h-5.9Z" />
                    <path class="cls-2"
                        d="M139.8,7.4h5.4a10.58,10.58,0,0,1,6.6,2,6.08,6.08,0,0,1,2.5,5.1,6.46,6.46,0,0,1-1.6,4.4,8.92,8.92,0,0,1-5.1,2.7l7.2,10.6h-3.9L144,22h-.8V32.2h-3.4Zm3.4,3v8.7c5,.1,7.5-1.3,7.5-4.4a3.74,3.74,0,0,0-.9-2.6,5,5,0,0,0-2.3-1.4A16.38,16.38,0,0,0,143.2,10.4Z" />
                    <path class="cls-2" d="M159,7.4h13.8v3.4H162.4V17h10.4v3.4H162.4V29h10.4v3.4H159Z" />
                    <path class="cls-2" d="M176.6,7.4h13.8v3.4H180V17h10.4v3.4H180V29h10.4v3.4H176.6Z" />
                </g>
            </g>
            <path class="cls-2"
                d="M26.5,3.6c-.8.4-1.5.8-2.3,1.2a28.16,28.16,0,0,0,4.6,5.4c1.8-3,5.1-7.5,9.4-10.1A40,40,0,0,0,26.5,3.6Z" />
            <path class="cls-2"
                d="M38.8,12.5a15.48,15.48,0,0,0,.1-2.2c0-1.8-.3-6.6,1.4-10.3C32.6,3.4,27.8,13.7,27.8,13.8a3.13,3.13,0,0,1-.5,1C29.1,15,35.7,14.3,38.8,12.5Z" />
            <path class="cls-2"
                d="M28.1,15.6a2.79,2.79,0,0,1-1-.1h0A30.12,30.12,0,0,1,22,22.9c2.3,1.6,7.3,4.5,10.5,4.7a22.73,22.73,0,0,0,5.3-9.2,31.6,31.6,0,0,0,1-5C35.7,15,30.5,15.6,28.1,15.6Z" />
            <path class="cls-2"
                d="M12.4,15.1A16.23,16.23,0,0,0,9.2,25a12.81,12.81,0,0,0,1.3,5.2h0a66.09,66.09,0,0,0,7.6-5C17.6,24,15.2,18.4,12.4,15.1Z" />
            <path class="cls-2"
                d="M23.5,5.2a36.47,36.47,0,0,0-10.6,9.3c2.8,3.2,5.2,8.6,5.9,10.2a29.7,29.7,0,0,0,8.3-11.3c.1-.1.5-1.1,1.3-2.5A23.58,23.58,0,0,1,23.5,5.2Z" />
            <path class="cls-2"
                d="M31.7,28.4c-3.9-.6-9.1-4-10.3-4.8C18.1,26.9,14.4,29,11,31A33.22,33.22,0,0,1,0,34.6a27.25,27.25,0,0,0,2.3,2.6c3.7-1,6.5-2.7,10-4.7C16.8,36.6,25.5,34.5,31.7,28.4Z" />
        </g>
    </g>
</svg>