<?xml version="1.0" encoding="utf-8"?>
<!-- Generator: Adobe Illustrator 26.0.1, SVG Export Plug-In . SVG Version: 6.00 Build 0)  -->
<svg version="1.1" xmlns="http://www.w3.org/2000/svg" xmlns:xlink="http://www.w3.org/1999/xlink" x="0px" y="0px"
	 viewBox="0 0 95.1 31.3" style="enable-background:new 0 0 95.1 31.3;" xml:space="preserve">
<style type="text/css">
	.st0{enable-background:new    ;}
	.st1{fill:#B22918;}
	.st2{fill:#B22918;stroke:#B22918;stroke-width:0.9677;stroke-linecap:round;stroke-linejoin:round;}
	.st3{fill:#fff;}
	.st4{fill:#fff;stroke:#fff;stroke-width:0.9677;stroke-linecap:round;stroke-linejoin:round;}
</style>
<g id="Layer_1">
</g>
<g id="Layer_2">
	<g id="Layer_2_00000119826772184431945150000009276605050760521344_">
		<g class="st0">
			<path class="st3" d="M3.1,7.4C3.5,7.6,4,7.8,4.5,7.8c0.8,0,1.3-0.4,1.3-1c0-0.6-0.3-0.9-1.1-1.2c-1-0.4-1.6-0.9-1.6-1.7
				c0-0.9,0.8-1.6,2-1.6c0.6,0,1.1,0.1,1.3,0.3L6.1,3.1C5.9,3,5.5,2.8,5,2.8c-0.8,0-1.1,0.5-1.1,0.9c0,0.6,0.4,0.8,1.2,1.2
				c1,0.4,1.5,0.9,1.5,1.8c0,0.9-0.7,1.8-2.1,1.8C3.9,8.4,3.3,8.2,2.9,8L3.1,7.4z"/>
			<path class="st3" d="M10.8,5.5H8.5v2.2h2.6v0.7H7.7V2.3h3.3v0.7H8.5v1.9h2.3V5.5z"/>
			<path class="st3" d="M13.5,2.3h0.8v4.1c0,1.6-0.8,2.1-1.8,2.1c-0.3,0-0.6-0.1-0.8-0.1l0.1-0.6c0.2,0.1,0.4,0.1,0.7,0.1
				c0.7,0,1.1-0.3,1.1-1.5V2.3z"/>
			<path class="st3" d="M15.6,2.3h0.8v5.4H19v0.7h-3.4V2.3z"/>
			<path class="st3" d="M19.8,2.3h0.8v2.9h0c0.2-0.2,0.3-0.4,0.5-0.6L23,2.3h1l-2.2,2.6l2.4,3.5h-0.9l-2-3L20.6,6v2.3h-0.8V2.3z"/>
			<path class="st3" d="M24.7,2.3h0.8v5.4h2.6v0.7h-3.4V2.3z"/>
			<path class="st3" d="M29.4,2.3v3.6c0,1.3,0.6,1.9,1.4,1.9c0.9,0,1.5-0.6,1.5-1.9V2.3h0.8v3.5c0,1.9-1,2.6-2.3,2.6
				c-1.2,0-2.2-0.7-2.2-2.6V2.3H29.4z"/>
			<path class="st3" d="M34.4,2.3c0.3-0.1,0.9-0.1,1.4-0.1c0.8,0,1.3,0.1,1.7,0.4C37.8,2.9,38,3.2,38,3.7c0,0.6-0.4,1.1-1,1.3v0
				c0.6,0.1,1.2,0.6,1.2,1.5c0,0.5-0.2,0.9-0.5,1.2c-0.4,0.4-1.1,0.6-2.1,0.6c-0.5,0-1,0-1.2-0.1V2.3z M35.2,4.8h0.7
				c0.8,0,1.3-0.4,1.3-1c0-0.7-0.5-1-1.3-1c-0.4,0-0.6,0-0.7,0.1V4.8z M35.2,7.7c0.2,0,0.4,0,0.7,0c0.8,0,1.6-0.3,1.6-1.2
				c0-0.8-0.7-1.2-1.6-1.2h-0.6V7.7z"/>
			<path class="st3" d="M39.3,2.3c0.3-0.1,0.9-0.1,1.4-0.1c0.8,0,1.3,0.1,1.7,0.4c0.3,0.2,0.5,0.6,0.5,1.1c0,0.6-0.4,1.1-1,1.3v0
				c0.6,0.1,1.2,0.6,1.2,1.5c0,0.5-0.2,0.9-0.5,1.2c-0.4,0.4-1.1,0.6-2.1,0.6c-0.5,0-1,0-1.2-0.1V2.3z M40.1,4.8h0.7
				c0.8,0,1.3-0.4,1.3-1c0-0.7-0.5-1-1.3-1c-0.4,0-0.6,0-0.7,0.1V4.8z M40.1,7.7c0.2,0,0.4,0,0.7,0c0.8,0,1.6-0.3,1.6-1.2
				c0-0.8-0.7-1.2-1.6-1.2h-0.6V7.7z"/>
			<path class="st3" d="M47.3,5.5H45v2.2h2.6v0.7h-3.4V2.3h3.3v0.7H45v1.9h2.3V5.5z"/>
			<path class="st3" d="M48.6,8.3V2.3h0.9l1.9,3.1c0.4,0.7,0.8,1.3,1.1,2l0,0c-0.1-0.8-0.1-1.5-0.1-2.5V2.3h0.7v6.1h-0.8l-1.9-3.1
				c-0.4-0.7-0.8-1.4-1.1-2l0,0c0,0.8,0.1,1.5,0.1,2.5v2.6H48.6z"/>
		</g>
		<g class="st0">
			<path class="st3" d="M23.2,19.1V13h0.9l1.9,3.1c0.4,0.7,0.8,1.3,1.1,2l0,0C27,17.2,27,16.5,27,15.6V13h0.7v6.1h-0.8L25,16
				c-0.4-0.7-0.8-1.4-1.1-2l0,0c0,0.8,0.1,1.5,0.1,2.5v2.6H23.2z"/>
			<path class="st3" d="M32.2,16.3h-2.3v2.2h2.6v0.7h-3.4V13h3.3v0.7h-2.5v1.9h2.3V16.3z"/>
			<path class="st3" d="M33.5,13.1C33.9,13,34.4,13,35,13c0.8,0,1.3,0.2,1.7,0.5c0.3,0.3,0.5,0.7,0.5,1.3c0,0.5-0.2,1-0.5,1.3
				c-0.4,0.4-1.1,0.7-1.9,0.7c-0.2,0-0.4,0-0.6-0.1v2.4h-0.8V13.1z M34.3,16c0.2,0,0.4,0.1,0.6,0.1c0.9,0,1.5-0.5,1.5-1.3
				c0-0.8-0.6-1.2-1.4-1.2c-0.3,0-0.6,0-0.7,0.1V16z"/>
			<path class="st3" d="M39.5,13.7h-1.8V13h4.5v0.7h-1.9v5.4h-0.8V13.7z"/>
			<path class="st3" d="M43.6,13v3.6c0,1.3,0.6,1.9,1.4,1.9c0.9,0,1.5-0.6,1.5-1.9V13h0.8v3.5c0,1.9-1,2.6-2.3,2.6
				c-1.2,0-2.2-0.7-2.2-2.6V13H43.6z"/>
			<path class="st3" d="M48.6,19.1V13h0.9l1.9,3.1c0.4,0.7,0.8,1.3,1.1,2l0,0c-0.1-0.8-0.1-1.5-0.1-2.5V13h0.7v6.1h-0.8L50.4,16
				c-0.4-0.7-0.8-1.4-1.1-2l0,0c0,0.8,0.1,1.5,0.1,2.5v2.6H48.6z"/>
		</g>
		<g class="st0">
			<path class="st3" d="M34.2,29.9l-2-6.1h0.9l0.9,3c0.3,0.8,0.5,1.6,0.6,2.3h0c0.2-0.7,0.4-1.5,0.7-2.3l1-3h0.8l-2.2,6.1H34.2z"/>
			<path class="st3" d="M41.1,27h-2.3v2.2h2.6v0.7h-3.4v-6.1h3.3v0.7h-2.5v1.9h2.3V27z"/>
			<path class="st3" d="M43.7,23.8h0.8v4.1c0,1.6-0.8,2.1-1.8,2.1c-0.3,0-0.6-0.1-0.8-0.1l0.1-0.6c0.2,0.1,0.4,0.1,0.7,0.1
				c0.7,0,1.1-0.3,1.1-1.5V23.8z"/>
			<path class="st3" d="M45.8,23.8h0.8v5.4h2.6v0.7h-3.4V23.8z"/>
			<path class="st3" d="M53.2,27h-2.3v2.2h2.6v0.7h-3.4v-6.1h3.3v0.7h-2.5v1.9h2.3V27z"/>
		</g>
		<g id="flag">
			<path class="st4" d="M63.9,5c0.3-0.6,0.8-1.1,1.5-1.3c-0.4-0.6-1.2-0.9-1.9-0.7C63.8,3.6,64,4.3,63.9,5z"/>
			<path class="st4" d="M56.1,29.1l8-24.5"/>
			<path class="st3" d="M89.4,20.5c-0.2-0.2-0.1-0.3-0.5-0.8c-0.3-0.5-0.8-1-1.2-1.4c-0.6-0.4-1.3-0.6-2-0.7
				c-1.4-0.2-2.6-0.8-3.7-1.6c-1-0.9-0.5-1.3-1.4-2.1c-1.8-1.7-4.5-0.4-5.7-2.1c-0.3-0.4-0.6-0.9-0.8-1.3c-0.2-0.6-0.6-1.1-1-1.5
				c-0.4-0.3-0.9-0.5-1.5-0.5c-1.8-0.2-3.5-0.6-5.2-1.3c-0.9-0.5-1.8-1-2.4-1.8l-1.3,3.5c0.2,1.1-1.5,8.6-3.1,12.8
				c-0.3,0.8-1.5,2-2,2.7c-0.3,0.3,0.2,0.6,0.3,0.7c0.1-0.4,2.8-2.9,5.3-3.7c1.7-0.6,3.5,0.2,3.7,0.4c0.9,0.5,0.8,1.3,1.7,1.8
				c0.7,0.4,1.5,0.2,2.7-0.1c2.2-0.5,2.9-1.5,4.7-1.5c0.8,0,1.3,0.2,1.3,0.4c0,0.2-0.3,0.4-0.2,0.7c0,0.3,0.3,0.5,0.5,0.6
				c0.6,0.4,1.4,0.5,2.1,0.3c0.7-0.1,1.4-0.2,2-0.3c1.7-0.6,3.4-1,5.2-1.1c2.1-0.1,2.6,0.5,4.1,0c1.2-0.4,2.1-1.3,2-1.6
				C93,20.5,90.4,21.6,89.4,20.5z M65.7,12.9L65,13.6l-0.2-0.9l-0.9-0.5l0.8-0.5l0.1-0.9l0.7,0.6l1-0.2l-0.4,0.8l0.5,0.9L65.7,12.9z
				 M66.7,9.7L66,10.4l-0.2-0.9l-0.9-0.5l0.8-0.5l0.1-1l0.7,0.6l1-0.2l-0.4,0.8l0.5,0.9L66.7,9.7z M69,11.6l-0.7,0.7l-0.2-0.9
				L67.3,11l0.8-0.5l0.1-0.9l0.7,0.6l1-0.2l-0.4,0.8l0.5,0.9L69,11.6z"/>
		</g>
	</g>
</g>
</svg>
