<svg xmlns="http://www.w3.org/2000/svg" viewBox="0 0 74.01 72.09"><defs><style>.cls-1,.cls-7{fill:none;}.cls-1,.cls-2,.cls-3,.cls-4,.cls-5,.cls-6,.cls-7,.cls-8{stroke:#000;}.cls-1{stroke-miterlimit:10;}.cls-2{fill:#f0ff64;}.cls-2,.cls-3,.cls-4,.cls-5,.cls-6,.cls-7,.cls-8{stroke-linecap:round;stroke-linejoin:round;}.cls-3{fill:#fdb3ff;}.cls-4{fill:#93dfff;}.cls-5{fill:#280055;}.cls-6,.cls-9{fill:#fff;}.cls-8{fill:#f6c;}</style></defs><g id="Layer_2" data-name="Layer 2"><g id="logo_color"><g id="logo_square"><g id="done_v1"><path class="cls-1" d="M71.66,24.66a35.51,35.51,0,1,1-67.8,1.55"/><path class="cls-1" d="M15.3,8.7a35.52,35.52,0,0,1,45.85.38"/><g id="right_horn"><path class="cls-2" d="M20,21.9s-9.89,5.94-11.36-3.57c-.74-5.67,6.79-3.73,5.27.35,0,0,5.57-1.63,4.64-6.37C17.17,7.27,10.41,8,10.41,8s-13.15.62-9.15,14.13c2.48,7.18,13.45,10.57,14.54,7.1A40.66,40.66,0,0,1,20,21.9Z"/><path class="cls-3" d="M8.69,18.83s-4.9-1.31-7.56,2.86c1.12,3.64,4,6.17,7.91,8C7.2,24,10.85,22.79,10.85,22.79a6.53,6.53,0,0,1-2.21-4"/><path class="cls-3" d="M9.31,15.44c-1.89-4.51-6.85-3.8-6.85-3.8a12.08,12.08,0,0,1,13.2-2.77s.8,4.39-2.74,6.57A2.86,2.86,0,0,0,9.31,15.44Z"/></g><g id="right_horn-2" data-name="right_horn"><path class="cls-2" d="M53.29,25.34s6,2.09,9.41-1.18a8,8,0,0,0,2.24-4.76c.74-5.66-6.79-3.72-5.28.35,0,0-5.56-1.63-4.63-6.36,1.35-5.05,8.11-4.32,8.11-4.32s13.15.62,9.15,14.12c-2.48,7.19-13.13,11.7-14.81,8.48C57.05,30.83,54.4,26.93,53.29,25.34Z"/><path class="cls-3" d="M62.7,24.16a6.25,6.25,0,0,0,2.15-4.25s4.91-1.31,7.56,2.85c-1.2,3.83-4,6.39-7.56,8.4,1.85-5.69-2.15-7-2.15-7"/><path class="cls-3" d="M64.23,16.52c1.9-4.52,6.85-3.81,6.85-3.81A12.14,12.14,0,0,0,57.88,10s-.79,4.38,2.75,6.57A2.84,2.84,0,0,1,64.23,16.52Z"/></g><path id="body" class="cls-4" d="M9.83,57.65l2.95-7.07-3.57,2s2.64-13.66,7.22-18.71L13.06,35.7s4.07-10.62,6.9-14a13.08,13.08,0,0,0-3.22,0,23.1,23.1,0,0,1,12.85-10C25.9,6.47,24.81,6.2,24.81,6.2s7.53.81,9.05,2.19c1-1.65,5.62-3.72,7.91-3.08C40.2,8.92,40.16,10,40.16,10S48.68,12,53,16.52c-3.08-.55-4.44.19-4.44.19s3.51.87,7.57,7.73a11,11,0,0,0-3.67-.28s10.25,14.08,13.48,25c-3.07-2.8-3.43-2.75-3.43-2.75s4.72,8.26,4.72,9.76C54.87,74,26.94,78.75,9.83,57.65Z"/><path class="cls-5" d="M26.94,46.17c6.42,29,18.54,25.91,22.12-.44l-5-1.59.81,2.44-7.06-2.44a46.07,46.07,0,0,1-6.17,2.68L32,44.18Z"/><path class="cls-6" d="M28.92,45.39s1.94,6.25,3.61,6.25S35,45.53,35,45.53s-2.44,1-3.32,1.29L32,44.18C31.21,44.5,29.53,45.11,28.92,45.39Z"/><path class="cls-6" d="M47.39,45.2s-2,6.44-3.68,6.44-2.33-6.28-2.33-6.28l3.54,1.22c-.13-.4-.75-2-.81-2.44Z"/><path class="cls-7" d="M25.19,29.56q3.73-3.09,7.46-.19"/><path class="cls-7" d="M42.19,29.56q3.73-3.09,7.46-.19"/><path id="mustache_line" class="cls-7" d="M23.81,40.37l-2.12,3.38,3-.23,1.09,3.06L32,44.18l-.35,2.64a45.48,45.48,0,0,0,6.17-2.68l7.06,2.44-.81-2.44,6.29,2-.24-2.72,4,.39a7.28,7.28,0,0,0-1.44-2.76"/><path class="cls-8" d="M39.08,61.25a6.81,6.81,0,0,0-1.17-1.33c-3.09-2.71-6.54-.05-6.54-.05s7,15.8,14.09.29c-1.09-2.68-6.17-2.5-7.55-.24Z"/><path id="eye2" d="M45.92,29.85a3.83,3.83,0,1,0,3.82,3.82A3.82,3.82,0,0,0,45.92,29.85Zm-1.7,3.8a1.19,1.19,0,1,1,1.19-1.18A1.18,1.18,0,0,1,44.22,33.65Z"/><path id="eye1" d="M28.92,29.83a3.82,3.82,0,1,0,3.82,3.82A3.82,3.82,0,0,0,28.92,29.83Zm-1.7,3.79a1.18,1.18,0,1,1,1.19-1.18A1.18,1.18,0,0,1,27.22,33.62Z"/><path id="eye2-2" data-name="eye2" d="M28.92,37.48a3.82,3.82,0,1,0-3.82-3.82A3.82,3.82,0,0,0,28.92,37.48Zm1.7-3.79a1.19,1.19,0,1,1-1.19,1.18A1.18,1.18,0,0,1,30.62,33.69Z"/><path id="eye1-2" data-name="eye1" d="M45.92,37.51a3.82,3.82,0,1,0-3.82-3.82A3.82,3.82,0,0,0,45.92,37.51Zm1.7-3.8a1.19,1.19,0,1,1-1.19,1.19A1.18,1.18,0,0,1,47.62,33.71Z"/><circle class="cls-9" cx="27.22" cy="32.46" r="1.18"/><circle class="cls-9" cx="44.22" cy="32.46" r="1.18"/></g></g></g></g></svg>