<svg xmlns="http://www.w3.org/2000/svg" viewBox="0 0 378.71 193.3"><defs><style>.cls-1,.cls-2{fill:#fff;}.cls-2{stroke:#fff;stroke-linecap:round;stroke-linejoin:round;stroke-width:4.64px;}</style></defs><g id="Layer_2" data-name="Layer 2"><g id="Layer_1-2" data-name="Layer 1"><path class="cls-1" d="M130.53,87.11h-19L90.14,44.19,86.46,36.8l6.86,1.79,31.24,8.14A1.54,1.54,0,0,0,125.89,44L100.3,24.32,68.69,0l-7,14.27L59.89,18,46.83,44.19,25.44,87.11h-19a6.44,6.44,0,1,0,0,12.88H130.53a6.44,6.44,0,0,0,0-12.88Z"/><path class="cls-1" d="M119.43,125.77c-.35-.9-9.44,4.36-22.37-2.3-7.73-4-7.72-10.66-15.43-12.92-6-1.76-10.68.63-13.15,4.08-2.46-3.45-7.12-5.84-13.14-4.08-7.72,2.26-7.71,8.93-15.44,12.92-12.92,6.66-22,1.4-22.36,2.3-.26.68,6.23,5.72,16.58,7.91a28.06,28.06,0,0,0-1,7.63c0,28.71,35.35,52,35.35,52s35.36-23.28,35.36-52a28.06,28.06,0,0,0-1-7.63C113.19,131.49,119.69,126.45,119.43,125.77Z"/><polygon class="cls-2" points="348.69 61.69 318.72 133.52 297.1 82.07 307.69 44.08 295.64 34.19 286.03 70.58 274.15 112.7 237.11 34.19 206.23 106.1 176.63 34.19 164.58 44.08 206.09 137.31 237.12 66 268.85 131.49 259.18 165.79 276.5 156.35 278.04 150.46 291.7 101.45 318.73 165.79 346.2 100.74 359.06 156.35 376.39 165.79 348.69 61.69"/></g></g></svg>