<?xml version="1.0" encoding="UTF-8"?><svg id="Layer_2" xmlns="http://www.w3.org/2000/svg" viewBox="0 0 740.57 313.59"><defs><style>.cls-1{fill:#fdfdfd;}</style></defs><g id="Layer_1-2"><g><path class="cls-1" d="M607.94,83.71c16.8,6.83,19.99,20.01,20.04,34.81,.06,20.99,.02,41.98,0,62.97,0,.46-.23,.93-.42,1.65h-39.95c0-2.03-.01-3.99,0-5.94,.12-17.82,.24-35.64,.36-53.46,0-1.5,.07-3-.02-4.5-.67-11-4.28-14.76-16.09-16.25v80.07h-42.17V2.08c.35-.2,.63-.5,.9-.5,21.31,.18,42.66-.39,63.91,.83,19.25,1.1,28.02,10.21,30.33,29.4,1.05,8.72,.94,17.61,.89,26.42-.07,11.81-3.19,21.95-17.8,25.47Zm-36.87-54.73v44.59c11.07,.41,13.92-2.36,13.35-11.7-.5-8.11-.3-16.28-.03-24.4,.16-4.84-2.31-7.02-6.48-7.89-2.07-.43-4.25-.39-6.83-.59Z"/><path class="cls-1" d="M300.39,183.42V1.42c3.16,0,6.12,0,9.07,0,15.99,.04,31.99-.26,47.97,.22,20.61,.61,32.77,10.75,35.9,31.02,1.53,9.89,1.32,20.26,.31,30.26-1.24,12.26-7.82,20.75-22.7,21.64,2.77,.88,4.11,1.43,5.51,1.74,9.41,2.13,15.43,8.11,17.46,17.25,4.25,19.11,4.25,38.38-.82,57.32-3.68,13.73-15.19,18.78-27.62,20.29-14.48,1.76-29.19,1.7-43.81,2.23-6.96,.25-13.93,.04-21.27,.04Zm39.56-31.33c11.05,1.24,15.28-1.8,15.75-12.48,.4-9.1-.15-18.24-.56-27.36-.37-8.4-6.06-13.08-15.19-12.62v52.46Zm-.79-82.81c10.22,1.72,15.3-1.91,15.74-11.55,.27-5.79,.08-11.67-.61-17.42-1.07-8.92-5.81-12.37-15.14-11.69v40.67Z"/><path class="cls-1" d="M512.16,92.3c0,16.65,.3,33.31-.1,49.95-.28,11.6-3.67,22.24-12.45,30.62-5.26,5.02-11.51,8.05-18.46,9.28-13.75,2.44-27.53,2.39-41.04-1.63-16.99-5.06-27.48-17.23-27.77-34.91-.59-34.78-.92-69.6,.1-104.36,.77-26.18,17.62-40.95,43.85-40.75,7.46,.06,15.02,.4,22.33,1.74,21.02,3.87,32.85,17.64,33.44,39.1,.47,16.97,.09,33.97,.1,50.95Zm-40.98,.63h.46c0-12.66,.2-25.33-.09-37.98-.14-6.12-.99-12.25-1.96-18.3-.58-3.63-2.66-6.75-6.77-6.95-4.49-.23-7.21,2.68-8.17,6.71-1.15,4.82-2.25,9.8-2.29,14.72-.2,28.15-.2,56.31,.04,84.46,.04,4.91,.96,10.04,2.69,14.6,.88,2.32,4.43,4.83,6.9,4.97,2.18,.12,5.48-2.46,6.6-4.69,1.65-3.3,2.41-7.33,2.47-11.07,.26-15.48,.11-30.97,.11-46.46Z"/><path class="cls-1" d="M739.88,60.96h-39.26c-.8-8.22-1.46-16.14-2.38-24.03-.44-3.77-1.57-7.49-6.36-7.56-4.9-.08-7.14,3.14-7.76,7.53-.65,4.6-1.34,9.26-1.34,13.89-.03,29.66,.06,59.32,.32,88.97,.03,3.92,.71,8.05,2.13,11.67,.86,2.18,3.86,5.06,5.68,4.92,2.33-.18,5.61-2.68,6.4-4.92,1.58-4.46,2.18-9.4,2.4-14.18,.36-7.79,.1-15.61,.1-23.29-.42-.34-.65-.68-.93-.71q-7.26-.91-7.27-8.46c0-6.95,0-13.9,0-20.96h48.54c0,4.85,.06,9.47-.01,14.09-.24,15.65,.27,31.36-.98,46.93-1.83,22.8-16.8,36.8-39.77,38.49-12.03,.88-24.03,.55-35.2-4.94-12.31-6.04-20.48-15.91-20.76-29.56-.7-35.45-.79-70.94-.01-106.39,.3-13.82,6-26.25,18.35-34.39,20.41-13.45,54.79-9.53,68.81,7.8,6.24,7.72,8.81,16.71,9.24,26.38,.27,6.11,.05,12.25,.05,18.71Z"/><path class="cls-1" d="M204.21,183.15h-38.61c-.62-4.45-1.21-8.69-1.84-13.24h-18.57c-.68,4.15-1.38,8.5-2.15,13.18h-37.58c9.5-60.62,18.97-121.01,28.45-181.49h35.92c11.43,60.36,22.85,120.72,34.37,181.56Zm-56.32-43.99h12.66c-2.03-23.05-4.03-45.79-6.04-68.54l-1,.08c-1.86,22.66-3.73,45.33-5.63,68.46Z"/><path class="cls-1" d="M68.87,183.02s0,.05,.02,.08h-26.75c.65-6.11,1.4-11.92,1.85-17.76,.2-2.59-.03-5.24-.37-7.83-.28-2.09-.59-6.37-.59-6.37,0,0,1.84-.42,2.8-.61,1.05-.2,.96,.06,.89-2.47-.11-4.47,.04-8.95,.04-13.42,.3-.01,.59-.03,.88-.04,1.18,2.29,2.31,4.61,3.49,6.9v.02c.98,1.89,1.98,3.76,3.07,5.58,.02,.03,.04,.07,.07,.1l3.02,5.5s.73,.04,1.9-.07c.79,1.28,1.33,2.76,1.85,4.19,1.61,4.44,3.26,8.88,4.62,13.41,1.21,4.05,2.08,8.2,3.21,12.79Z"/><path class="cls-1" d="M217.52,1.86h40.02V154.83h30.74v28.37h-70.77V1.86Z"/><path class="cls-1" d="M85.73,313h-24.48v-51.66c-.36-.04-.73-.08-1.09-.12-1.99,9.71-3.98,19.42-5.97,29.13-1.27,6.19-2.87,12.33-3.73,18.57-.52,3.76-2.15,4.72-5.57,4.4-2.63-.25-5.3-.05-8.53-.05-3.18-17.41-6.32-34.65-9.47-51.89l-.75,.02c-.7,17.03-1.4,34.07-2.11,51.48H.05c2.07-37.62,4.13-75.13,6.24-113.44,7.59,0,15.17-.12,22.73,.17,.85,.03,2.01,2.27,2.35,3.66,3.65,14.85,7.16,29.74,10.71,44.61,.38,1.59,.83,3.17,1.57,5.95,4.72-16.82,9.34-32.41,13.38-48.15,1.25-4.89,3.08-6.87,8.31-6.39,5.94,.54,11.96,.13,18.54,.13,.62,37.96,1.23,75.63,1.85,113.59Z"/><path class="cls-1" d="M211.28,251.26c9.6,4.01,11.54,12.09,11.6,21.01,.1,13.44,.03,26.89,.03,40.66h-25.29c0-8.67,0-17.12,0-25.57,0-5.16,.18-10.34-.11-15.48-.35-6.04-2.96-8.17-9.91-8.29v49.42h-26.12v-114.09c14.92,.55,29.88,.36,44.65,1.9,9.34,.97,13.76,7.27,14.81,17.5,.59,5.77,.64,11.64,.36,17.44-.46,9.43-1.55,10.83-10.01,15.49Zm-24.02-6.79c7.45,0,8.4-.93,8.4-7.85,0-3.98,.02-7.96,.02-11.95,0-6.76-1.27-7.88-8.42-7.36v27.16Z"/><path class="cls-1" d="M603.2,250.95c10.12,4.77,12.16,12.74,12.02,22.01-.2,13.15-.05,26.3-.05,39.88h-24.9c-.09-1.69-.27-3.45-.27-5.2,.03-11.5,.18-22.99,.11-34.49-.04-6.6-2.68-9.18-9.84-9.73v49.51h-26.21v-113.04c.89-.14,1.98-.45,3.07-.45,11.33,.02,22.67-.23,33.99,.21,14.94,.59,20.61,5.81,22.43,20.61,.71,5.74,.5,11.64,.22,17.45-.3,6.23-2.94,11.18-10.57,13.24Zm-23.54-6.42c7.54-.23,8.27-.93,8.33-7.64,.03-3.99,.01-7.98,0-11.96-.01-7.18-.59-7.74-8.34-7.81v27.41Z"/><path class="cls-1" d="M714.92,231.3c-.24-3.52-.08-6.74-.82-9.74-.44-1.81-2.28-3.28-3.48-4.9-1.49,1.58-4.32,3.24-4.23,4.73,.29,4.81,.61,10.14,2.87,14.19,2.85,5.1,7.75,9.02,11.52,13.64,5.76,7.05,12.37,13.69,16.72,21.56,6.69,12.1,1.81,30.48-8.5,37.41-12.32,8.28-30.69,6.92-40.05-3.17-6.67-7.19-7.88-16.15-7.88-25.81h25.1c0,2.89-.6,5.84,.17,8.37,.73,2.39,2.9,4.34,4.43,6.49,1.37-2.24,3.85-4.48,3.85-6.72,0-3.11-1.18-6.75-3.08-9.22-4.96-6.44-10.54-12.41-15.96-18.49-6.44-7.23-13-14.33-14.94-24.33-2.29-11.82,2.54-26.53,11.07-31.84,12.07-7.51,24.72-6.67,36.52,0,10.45,5.91,11.11,16.84,11.41,27.83h-24.72Z"/><path class="cls-1" d="M502.22,199.57h22.56c7.12,37.61,14.24,75.22,21.51,113.66-7.71,0-14.95,.08-22.19-.11-.83-.02-2-1.47-2.35-2.49-.58-1.7-.61-3.58-.93-5.71h-11.22c-.47,2.55-.96,5.25-1.48,8.08h-23.65c5.94-37.93,11.82-75.49,17.76-113.43Zm12.99,44.76l-.76-.12c-1.11,13.66-2.21,27.32-3.32,41.04h7.71c-1.23-13.89-2.43-27.4-3.63-40.92Z"/><path class="cls-1" d="M385.43,313.04h-24.03c-.52-2.75-1-5.33-1.54-8.19h-11.1c-.48,2.72-.95,5.41-1.43,8.18h-23.66c5.94-37.98,11.82-75.59,17.73-113.38h22.59c7.13,37.65,14.24,75.27,21.46,113.38Zm-27.36-27.65c-1.24-13.6-2.42-26.62-3.61-39.64l-.99,.1c-1.05,13.12-2.1,26.25-3.16,39.54h7.76Z"/><path class="cls-1" d="M153.79,313h-23.78c-2.48-9.44-2.6-9.51-13.04-7.89-.37,2.47-.76,5.05-1.18,7.86h-23.76c5.94-37.91,11.82-75.44,17.74-113.23h22.62c7.09,37.49,14.2,75.1,21.41,113.26Zm-30.98-68.6l-.75-.03c-1.12,13.58-2.24,27.16-3.36,40.8h7.7c-1.22-13.87-2.4-27.32-3.58-40.77Z"/><path class="cls-1" d="M268.78,313.02h-24.61v-94.39h-15.16v-18.91h54.67v18.61h-14.9v94.69Z"/><path class="cls-1" d="M676.03,199.73v18.51h-14.73v94.65h-24.68v-94.18h-15.09v-18.98h54.49Z"/><path class="cls-1" d="M417.49,295.45h19.21v17.51h-44.22v-113.07h25.01v95.57Z"/><path class="cls-1" d="M292.31,199.62h24.08v113.26h-24.08v-113.26Z"/><line class="cls-1" x1="68.87" y1="183.02" x2="54.32" y2="183.1"/><g><path class="cls-1" d="M42.23,183.26l26.72-.08c-1.13-4.58-2-8.72-3.2-12.76-1.36-4.53-3.01-8.97-4.62-13.41-.52-1.43-1.06-2.91-1.85-4.19-1.17,.11-1.9,.07-1.9,.07l-3.02-5.5-3.13-5.68v-.02c-1.19-2.29-2.32-4.61-3.5-6.9-.29,.01-.58,.03-.88,.04,0,4.47-.15,8.95-.04,13.42,.07,2.53,.16,2.27-.89,2.47-.96,.19-2.8,.61-2.8,.61,0,0,.31,4.28,.59,6.37,.34,2.59,.57,5.24,.37,7.83-.45,5.83-1.2,11.64-1.85,17.74Z"/><path class="cls-1" d="M37.68,175.43c-.53-7.6-1.15-15.19-1.76-23.14-6.53,.26-4.57-.15-4.15-6.75,.77-12.12,3.38-24.04,4.86-36.09,.43-3.49,.07-7.07,.07-12.01-1.77,2.03-2.75,2.76-3.19,3.73-1.99,4.38-3.39,9.09-5.85,13.18-1.83,3.04-4.19,6.5-4.19,9.54,0,0,1.57,1.12,2.16,2.64,.44,1.16-.03,4.81-1.42,6.16-1.26,1.22-5.48,1.78-6.75,1.03-1.28-.75-2.3-2.69-1.91-5.87,.27-2.23,1.32-3.87,2.84-6.85,1.21-2.38,2.43-9,3.7-13.24,.69-2.3,1.95-3.78,1.95-3.78,.53-3.2,1.2-5.72,2.48-7.76,2.55-4.04,2.51-5.55,2.58-6.36,.15-1.92,2.51-5.51,8.31-4.73,2.55-1.11,2.56-1.71,2.56-1.71,0,0,2.29-3.02,1.01-5.41-1.27-2.4-3.57-5.19-2.54-9.54,1.03-4.35,6.26-8.17,11.64-5.92,3.7,1.55,3.69,7.05,3.13,9.68-.52,2.51,.2,4.95-2.98,7.1-3.18,2.15,1.33,4.09,1.33,4.09,1.22,.97,3.34,.1,6.06,.15,3.96,.07,6.02,2.93,6.47,6.45,.35,2.73,2.23,3.44,3.26,6.91,1.64,5.54,3.42,4.89,6.85,20.39,.7,3.17,3.66,5.8,4.64,8.66,.76,1.78,.43,5.49-.68,6.46-1.26,1.09-6.36,1.47-7.71,.42-1.47-1.15-2.45-4.03-2.45-6.26,0-3.82,3.98-1.3,.73-9.58-.86-2.18-2.53-4.35-3.6-6.39-1.56-2.98-3.45-5.39-4.7-8.61-.78-2.02-1.45-2.46-2.58-3.43-3.54,18.47,5.87,33.66,12.59,48.85-1.09,1.21-2.28,2.16-3.49,2.89,2.86,11.22,5.65,22.15,8.36,32.82l23.22-.07c-.33-2.17-.54-3.97-.88-5.75-6.16-32.69-12.35-65.37-18.52-98.06-4.7-24.83-9.34-49.68-14.18-74.49-.25-1.28-2.06-3.19-3.19-3.22-10.96-.24-21.94-.15-33.27-.15C18.95,62.38,9.51,122.65,0,183.4l33.08-.1c3.23-.77,4.88-3.81,4.61-7.87Z"/></g></g></g></svg>