<svg xmlns="http://www.w3.org/2000/svg" viewBox="0 0 406.15 59.66"><defs><style>.cls-1{fill:#fff;}</style></defs><g id="Layer_2" data-name="Layer 2"><g id="skyline"><g id="clouds"><path class="cls-1" d="M392.9,6.42a11.28,11.28,0,0,0-8.18,10.07,13.29,13.29,0,0,0-22.81,4.07,8.67,8.67,0,0,0-11.08,3.2,22.39,22.39,0,0,0-16.72-7.21,23.32,23.32,0,0,0-10.25,2.33,14.71,14.71,0,0,0-9.15-12.69c-7.12-3.11-15.11-.64-18.28,5.47a7.38,7.38,0,0,0-12.92,4.89c0,.21,0,.42,0,.63a15.26,15.26,0,0,0-1.8-.93c-7.4-3.23-15.75-.45-18.65,6.19a12.16,12.16,0,0,0-.82,2.83,7.35,7.35,0,0,0-9.5-1.17,15.4,15.4,0,0,0-8-7.85,14.93,14.93,0,0,0-14.52,1.15,7.39,7.39,0,0,0-13.48,4.19c-7.37,0-13.88,3.15-17.74,7.94a12.37,12.37,0,0,0-16.79,0,13.45,13.45,0,0,0-.32-5.1c-1.68-6.44-7.65-10.46-13.34-9a10.48,10.48,0,0,0-7.4,8.13,14.52,14.52,0,0,0-5.64-1.13A14.34,14.34,0,0,0,147,25.21a19.87,19.87,0,0,0-10.54-11.93,14.88,14.88,0,0,0-9.09-11.94c-7.41-3.22-15.76-.44-18.65,6.2a11.61,11.61,0,0,0-.91,3.5,7.39,7.39,0,0,0-12.31,5.51,7.18,7.18,0,0,0,.28,2,13.24,13.24,0,0,0-9.12,6.58,14.22,14.22,0,0,0-9.48-3.52c-.26,0-.52,0-.78,0-1.84-4.68-6.79-8-12.63-8-6.52,0-11.95,4.18-13.16,9.72a17.54,17.54,0,0,0-2.73-.23A16.58,16.58,0,0,0,34.76,29.2a10.28,10.28,0,0,0-6.23-2.1,11.5,11.5,0,0,0-1.45.11A13.71,13.71,0,0,0,0,30.26v29.4H406.12V13.39h0C403.87,8.08,398.3,5,392.9,6.42Z"/></g></g></g></svg>