<svg xmlns="http://www.w3.org/2000/svg" viewBox="0 0 406.15 59.66"><defs><style>.cls-1{fill:#fff;}</style></defs><g id="Layer_2" data-name="Layer 2"><g id="skyline"><g id="clouds"><path class="cls-1" d="M13.25,53.23a11.29,11.29,0,0,0,8.19-10.07A13.3,13.3,0,0,0,44.25,39.1a8.66,8.66,0,0,0,11.07-3.2,22.42,22.42,0,0,0,16.73,7.21,23.38,23.38,0,0,0,10.24-2.33,14.74,14.74,0,0,0,9.15,12.69c7.12,3.1,15.11.64,18.28-5.47a7.38,7.38,0,0,0,12.92-4.89c0-.22,0-.43,0-.64a16.15,16.15,0,0,0,1.8.94c7.41,3.22,15.76.45,18.65-6.2a11.62,11.62,0,0,0,.82-2.82,7.39,7.39,0,0,0,9.51,1.17,15.42,15.42,0,0,0,8,7.85,15,15,0,0,0,14.53-1.16,7.39,7.39,0,0,0,13.47-4.19c7.38,0,13.88-3.14,17.75-7.93a12.4,12.4,0,0,0,16.79,0,13.24,13.24,0,0,0,.31,5.1c1.68,6.44,7.65,10.45,13.34,9a10.49,10.49,0,0,0,7.4-8.13,14.61,14.61,0,0,0,5.65,1.13,14.34,14.34,0,0,0,8.54-2.76,19.86,19.86,0,0,0,10.55,11.93,14.83,14.83,0,0,0,9.09,11.93c7.4,3.23,15.75.45,18.65-6.2a12.06,12.06,0,0,0,.91-3.5,7.37,7.37,0,0,0,12.3-5.5,7.65,7.65,0,0,0-.27-2,13.24,13.24,0,0,0,9.12-6.58A14.12,14.12,0,0,0,329,38.06c.27,0,.52,0,.78,0a13.41,13.41,0,0,0,12.64,8c6.52,0,11.95-4.18,13.15-9.72a17.57,17.57,0,0,0,2.74.22,16.53,16.53,0,0,0,13.07-6.11,10.24,10.24,0,0,0,6.23,2.11,10,10,0,0,0,1.46-.12,13.71,13.71,0,0,0,27.07-3V0H0V46.26H0C2.29,51.58,7.85,54.64,13.25,53.23Z"/></g></g></g></svg>