<svg xmlns="http://www.w3.org/2000/svg" viewBox="0 0 122.88 122.88">
    <defs>
        <style>
            .cls-1 {
                fill: transparent;
                stroke: transparent;
                stroke-width: 1.01px;
            }

            .cls-1,
            .cls-2 {
                stroke-linecap: round;
                stroke-linejoin: round;
            }

            .cls-2 {
                stroke: #fff;
            }

            .cls-2,
            .cls-3 {
                fill: #fff;
                stroke-width: 5.48px;
                transition: transform .5s ease-in-out;
                animation: infi 3s ease-in-out infinite;
            }

            @keyframes infi {
                50% {
                    transform: translateY(10px);
                }
            }
        </style>
    </defs>
    <g id="Layer_2" data-name="Layer 2">
        <g id="v3Clouds">
            <circle class="cls-1" cx="61.44" cy="61.44" r="60.93" />
            <polygon class="cls-2" points="62.18 92.27 22.65 65.49 101.72 65.49 62.18 92.27" />
            <path class="cls-3"
                d="M30.23,43.39a.92.92,0,0,1-.29.43.7.7,0,0,1-.4.12,1,1,0,0,1-.53-.21l-.68-.47a5.26,5.26,0,0,0-.92-.47,3.37,3.37,0,0,0-1.25-.21,3.23,3.23,0,0,0-1.13.18,2.24,2.24,0,0,0-.81.51,2.07,2.07,0,0,0-.49.79,2.91,2.91,0,0,0-.16,1,2,2,0,0,0,.33,1.16,2.89,2.89,0,0,0,.87.79A7.51,7.51,0,0,0,26,47.6c.47.17.94.35,1.42.55a12.33,12.33,0,0,1,1.42.68,4.92,4.92,0,0,1,1.24,1A4.59,4.59,0,0,1,31,51.27a5.84,5.84,0,0,1,.33,2.09,7.84,7.84,0,0,1-.39,2.5,5.94,5.94,0,0,1-1.14,2A5.18,5.18,0,0,1,28,59.26a5.86,5.86,0,0,1-2.47.5,7,7,0,0,1-1.58-.19,7.44,7.44,0,0,1-2.82-1.34A7,7,0,0,1,20,57.16l.9-1.76a1.18,1.18,0,0,1,.31-.32.71.71,0,0,1,.4-.13,1,1,0,0,1,.62.28c.23.19.49.4.8.62a5.19,5.19,0,0,0,1.07.62,3.57,3.57,0,0,0,1.49.28A2.76,2.76,0,0,0,27.64,56a3,3,0,0,0,.73-2.14A2.26,2.26,0,0,0,28,52.6a2.89,2.89,0,0,0-.88-.82,6.46,6.46,0,0,0-1.24-.57c-.46-.15-.93-.32-1.41-.5a10.66,10.66,0,0,1-1.42-.66A4.41,4.41,0,0,1,21,47.52a6.76,6.76,0,0,1-.33-2.27,6.26,6.26,0,0,1,.36-2.1,5.64,5.64,0,0,1,1.07-1.82,5.22,5.22,0,0,1,1.72-1.26,5.42,5.42,0,0,1,2.33-.48,6.79,6.79,0,0,1,2.73.54A6.25,6.25,0,0,1,31,41.66Z" />
            <path class="cls-3"
                d="M45.2,54.88a.54.54,0,0,1,.44.24l1.23,1.56A6.9,6.9,0,0,1,44.36,59a7.47,7.47,0,0,1-3.57.8A7.38,7.38,0,0,1,37.43,59a7.49,7.49,0,0,1-2.54-2.08,9.74,9.74,0,0,1-1.62-3.2,14,14,0,0,1-.56-4,12.54,12.54,0,0,1,.63-4.07,9.48,9.48,0,0,1,1.76-3.19,7.94,7.94,0,0,1,2.72-2.08,8.14,8.14,0,0,1,3.49-.74,7.15,7.15,0,0,1,3.26.7A7.67,7.67,0,0,1,47,42.15l-1,1.71a1.09,1.09,0,0,1-.24.29.6.6,0,0,1-.4.12.81.81,0,0,1-.54-.25,7.27,7.27,0,0,0-.71-.53A4.94,4.94,0,0,0,43,43a4.64,4.64,0,0,0-1.66-.25,4.84,4.84,0,0,0-3.88,1.87,6.45,6.45,0,0,0-1.11,2.19,9.68,9.68,0,0,0-.4,2.9,9.91,9.91,0,0,0,.4,3,6.69,6.69,0,0,0,1.08,2.19A4.69,4.69,0,0,0,39,56.17a4.26,4.26,0,0,0,2,.47,6.89,6.89,0,0,0,1.16-.08,4,4,0,0,0,1-.26,4.36,4.36,0,0,0,.82-.45,5.38,5.38,0,0,0,.77-.69,1.06,1.06,0,0,1,.24-.2A.57.57,0,0,1,45.2,54.88Z" />
            <path class="cls-3"
                d="M52.44,51.83v7.71H49.33V39.81h5.11a9.33,9.33,0,0,1,2.93.41,5.34,5.34,0,0,1,2,1.17,4.64,4.64,0,0,1,1.15,1.79,7.07,7.07,0,0,1,.36,2.3,6.85,6.85,0,0,1-.25,1.89A5.58,5.58,0,0,1,59.92,49a5.3,5.3,0,0,1-1.15,1.26,5.73,5.73,0,0,1-1.57.88,3.29,3.29,0,0,1,1,1.13l4.2,7.29h-2.8a1.25,1.25,0,0,1-.69-.19,1.65,1.65,0,0,1-.49-.55l-3.52-6.32a1.36,1.36,0,0,0-.43-.5,1.32,1.32,0,0,0-.7-.15Zm0-2.64h2a4,4,0,0,0,1.54-.26,2.83,2.83,0,0,0,1.71-1.8,4.53,4.53,0,0,0,.2-1.37A3.06,3.06,0,0,0,57,43.45a3.56,3.56,0,0,0-2.56-.81h-2Z" />
            <path class="cls-3"
                d="M79.92,49.67a12.64,12.64,0,0,1-.62,4,9.92,9.92,0,0,1-1.72,3.2,8,8,0,0,1-12.3,0,9.57,9.57,0,0,1-1.73-3.2,13.34,13.34,0,0,1,0-8,9.57,9.57,0,0,1,1.73-3.2,8.13,8.13,0,0,1,9.62-2.1,8,8,0,0,1,2.68,2.11,9.87,9.87,0,0,1,1.72,3.19A12.69,12.69,0,0,1,79.92,49.67Zm-3.2,0a10.83,10.83,0,0,0-.36-2.91,6.76,6.76,0,0,0-1-2.19,4.62,4.62,0,0,0-1.67-1.38,4.9,4.9,0,0,0-2.2-.48,5,5,0,0,0-2.22.48,4.71,4.71,0,0,0-1.67,1.38,6.57,6.57,0,0,0-1.06,2.19,11.63,11.63,0,0,0,0,5.82,6.57,6.57,0,0,0,1.06,2.19,4.79,4.79,0,0,0,1.67,1.37,5,5,0,0,0,2.22.48,4.9,4.9,0,0,0,2.2-.48,4.7,4.7,0,0,0,1.67-1.37,6.76,6.76,0,0,0,1-2.19A10.83,10.83,0,0,0,76.72,49.67Z" />
            <path class="cls-3" d="M85.49,56.51H92.2v3H82.38V39.81h3.11Z" />
            <path class="cls-3" d="M97.47,56.51h6.71v3H94.36V39.81h3.11Z" />
        </g>
    </g>
</svg>