<svg xmlns="http://www.w3.org/2000/svg" viewBox="0 0 1007.98 1059.18"><defs><style>.cls-1{fill:#2d58cf;}</style></defs><g id="Layer_2" data-name="Layer 2"><g id="v3Clouds"><path class="cls-1" d="M342.19,406.47a114.39,114.39,0,0,0-32,4.5A57.6,57.6,0,0,0,201.83,433.6,35.33,35.33,0,0,0,157,463.09,45.39,45.39,0,0,0,134.29,551c8.57,32.12,38.61,55.84,74.35,55.84a78.13,78.13,0,0,0,38.19-9.89,59.12,59.12,0,0,0,91.31-41.25c1.34.05,2.69.08,4.05.08,51.58,0,93.39-33.41,93.39-74.63S393.77,406.47,342.19,406.47Z"/><path class="cls-1" d="M215.63,945.51a82,82,0,0,0-14.92-17.62,41.16,41.16,0,0,0-55-56.83,25.27,25.27,0,0,0-34.93-15.83A32.43,32.43,0,0,0,49,875c-16.14,17.44-19,44.64-5.36,66.24a55.84,55.84,0,0,0,20.54,19.3A42.25,42.25,0,0,0,124,1000c.49.83,1,1.65,1.5,2.47,19.69,31.16,55.83,43.68,80.74,28S235.32,976.67,215.63,945.51Z"/><path class="cls-1" d="M843,856.2A58.52,58.52,0,1,0,749.45,786,74.3,74.3,0,0,0,619.6,840.29a46,46,0,0,0-53.55,33.16,70.65,70.65,0,0,0-28.28,13.44C510,908.82,505,946.49,526.75,971c18.86,21.31,51.61,25.71,78.12,12.14.4.49.79,1,1.22,1.46,20,22.59,55.59,26.17,82.82,9.5,37.24,22,88.61,18.89,126.33-10.84C856.87,950.47,867.65,896.41,843,856.2Z"/><path class="cls-1" d="M345.58,94c6.39-26-4.23-52.57-28-64.58C303,22.05,286.33,21.54,271,26.63a59.2,59.2,0,0,0-23.73-3.22A99.84,99.84,0,0,0,228.88,11.3C176.12-15.59,107.76,7.16,76.19,62.12c-1.72,3-3.28,6-4.72,9.09a55.45,55.45,0,0,0-32.32,73.64,70.53,70.53,0,0,0-22.24,23.58c-17.74,30.65-8.4,67.48,20.85,82.25,20.79,10.5,46,7,65.27-6.85a58.52,58.52,0,0,0,114.68,23.1A74.3,74.3,0,0,0,318.3,168.5,46,46,0,0,0,345.58,94Z"/><path class="cls-1" d="M369.28,781c1.44-.48,2.9-.87,4.35-1.2h0a45.93,45.93,0,0,1-33.74-30.58c-.48-1.45-.87-2.9-1.2-4.35h0a45.93,45.93,0,0,1-30.58,33.74,44,44,0,0,1-4.35,1.19h0a46,46,0,0,1,33.74,30.59,43.22,43.22,0,0,1,1.19,4.35A46,46,0,0,1,369.28,781Z"/><path class="cls-1" d="M960.59,990.5a43.22,43.22,0,0,1,4.35-1.19h0a46,46,0,0,1-33.75-30.59c-.47-1.44-.86-2.9-1.19-4.35h0a45.93,45.93,0,0,1-30.58,33.74c-1.45.48-2.9.87-4.36,1.2h0a45.94,45.94,0,0,1,33.75,30.58,44,44,0,0,1,1.19,4.35A45.92,45.92,0,0,1,960.59,990.5Z"/><path class="cls-1" d="M65.52,36.3c1.45-.47,2.9-.87,4.36-1.19h0A45.94,45.94,0,0,1,36.13,4.52c-.47-1.44-.87-2.9-1.19-4.35h0A46,46,0,0,1,4.36,33.92c-1.45.47-2.9.86-4.36,1.19H0A46,46,0,0,1,33.75,65.69c.47,1.45.86,2.9,1.19,4.36A45.94,45.94,0,0,1,65.52,36.3Z"/><path class="cls-1" d="M341.15,1025.44c1.45-.48,2.9-.87,4.36-1.2h0a45.94,45.94,0,0,1-33.75-30.58c-.47-1.45-.87-2.9-1.19-4.35h0A45.93,45.93,0,0,1,280,1023.05a43.4,43.4,0,0,1-4.36,1.19h0a46,46,0,0,1,33.75,30.59c.47,1.44.86,2.9,1.19,4.35A45.93,45.93,0,0,1,341.15,1025.44Z"/><path class="cls-1" d="M734.11,115.91c1.44-.47,2.9-.86,4.35-1.19h0a45.93,45.93,0,0,1-33.74-30.58c-.48-1.45-.87-2.9-1.2-4.36h0a45.94,45.94,0,0,1-30.58,33.75c-1.45.47-2.9.87-4.35,1.19h0a45.93,45.93,0,0,1,33.74,30.58,43.4,43.4,0,0,1,1.19,4.36A46,46,0,0,1,734.11,115.91Z"/><path class="cls-1" d="M642.28,212.6a53.53,53.53,0,0,1,5.17-1.41h0a54.59,54.59,0,0,1-40.08-36.32q-.84-2.58-1.41-5.18h0a54.58,54.58,0,0,1-36.33,40.08c-1.71.56-3.44,1-5.17,1.42h0a54.55,54.55,0,0,1,40.08,36.32c.56,1.71,1,3.44,1.42,5.17A54.55,54.55,0,0,1,642.28,212.6Z"/><path class="cls-1" d="M747.9,590c1.23-.41,2.47-.74,3.71-1h0a39.09,39.09,0,0,1-28.72-26c-.41-1.24-.74-2.47-1-3.71h0a39.1,39.1,0,0,1-26,28.72,38.32,38.32,0,0,1-3.7,1h0a39.12,39.12,0,0,1,28.72,26c.4,1.23.74,2.47,1,3.71A39.12,39.12,0,0,1,747.9,590Z"/><path class="cls-1" d="M86.61,409.17c1.23-.4,2.47-.74,3.71-1h0a39.12,39.12,0,0,1-28.73-26c-.4-1.23-.74-2.47-1-3.71h0a39.1,39.1,0,0,1-26,28.73c-1.23.4-2.47.73-3.71,1h0a39.1,39.1,0,0,1,28.73,26c.4,1.23.73,2.47,1,3.7A39.1,39.1,0,0,1,86.61,409.17Z"/><path class="cls-1" d="M261.45,733.63q1.76-.57,3.51-1h0A37.06,37.06,0,0,1,237.76,708q-.57-1.75-1-3.51h0a37,37,0,0,1-24.65,27.2c-1.16.38-2.34.7-3.51,1h0a37,37,0,0,1,27.2,24.65,34.5,34.5,0,0,1,1,3.51A37,37,0,0,1,261.45,733.63Z"/><path class="cls-1" d="M1005.31,264.18c-8.15-24.89-32.88-39.84-58.58-37.25-13.6-38.52-56.46-59.05-96.63-45.9a78.22,78.22,0,0,0-49.77,48.43,76.2,76.2,0,0,0-83.93,31.11q-1.5-.29-3-.48c-34.58-4.34-67,27.21-72.45,70.48a95.76,95.76,0,0,0,1.54,33.12c-43.19,29-66,73-53.38,111.67,16.53,50.51,87.45,72.62,158.4,49.4a192.78,192.78,0,0,0,18.43-7.11,74.26,74.26,0,0,0,127.56-34.91,45.58,45.58,0,0,0,45.74-70.68c26.13-19.14,39-49.94,29.83-78.07l0-.08C998.47,324,1014.72,292.92,1005.31,264.18Z"/></g></g></svg>