<svg xmlns="http://www.w3.org/2000/svg" viewBox="0 0 269.82 130.29"><defs><style>.cls-1{fill:#fff;stroke:#000;stroke-linecap:round;stroke-linejoin:round;stroke-width:6.32px;}</style></defs><g id="Layer_2" data-name="Layer 2"><g id="v3Clouds"><g id="cloud_small"><path class="cls-1" d="M40,55.88a37.87,37.87,0,0,1,8.45,1s0-.07,0-.1c0-10,9.06-18.1,20.24-18.1a21.51,21.51,0,0,1,13.59,4.72C86.61,25,104.89,11.14,126.78,11.14a49.46,49.46,0,0,1,23.38,5.77A50.79,50.79,0,0,1,185.41,3.16c26.57,0,48.11,19.27,48.11,43A38.87,38.87,0,0,1,232,57.07a29.25,29.25,0,0,1,8.24-1.19c14.61,0,26.45,10.6,26.45,23.66a22.44,22.44,0,0,1-8,16.89c5,3.23,8,7.31,8,11.75,0,10.47-16.48,18.95-36.8,18.95H40c-20.32,0-36.8-15.95-36.8-35.62S19.64,55.88,40,55.88Z"/></g></g></g></svg>