<svg xmlns="http://www.w3.org/2000/svg" viewBox="0 -10 250.82 190.36">
    <defs>
        <style>
            .cls-1 {
                fill: #ffba6e;
            }

            .cls-1,
            .cls-10,
            .cls-11,
            .cls-12,
            .cls-13,
            .cls-14,
            .cls-15,
            .cls-16,
            .cls-17,
            .cls-18,
            .cls-19,
            .cls-20,
            .cls-21,
            .cls-4,
            .cls-9 {
                stroke: #000;
            }

            .cls-1,
            .cls-10,
            .cls-11,
            .cls-12,
            .cls-13,
            .cls-14,
            .cls-15,
            .cls-16,
            .cls-17,
            .cls-18,
            .cls-19,
            .cls-2,
            .cls-20,
            .cls-21,
            .cls-22,
            .cls-3,
            .cls-4,
            .cls-5,
            .cls-6,
            .cls-7,
            .cls-8,
            .cls-9 {
                stroke-linecap: round;
            }

            .cls-1,
            .cls-10,
            .cls-11,
            .cls-12,
            .cls-13,
            .cls-15,
            .cls-16,
            .cls-17,
            .cls-18,
            .cls-19,
            .cls-2,
            .cls-20,
            .cls-21,
            .cls-22,
            .cls-3,
            .cls-4,
            .cls-5,
            .cls-6,
            .cls-7,
            .cls-8,
            .cls-9 {
                stroke-linejoin: round;
            }

            .cls-1,
            .cls-4 {
                stroke-width: 2px;
            }

            .cls-2,
            .cls-5,
            .cls-6,
            .cls-7,
            .cls-8 {
                fill: #ef7443;
                stroke: #ef7443;
            }

            .cls-2 {
                stroke-width: 0.6px;
            }

            .cls-12,
            .cls-15,
            .cls-3 {
                fill: #fff;
            }

            .cls-22,
            .cls-3 {
                stroke: #fff;
            }

            .cls-3 {
                stroke-width: 0.75px;
            }

            .cls-13,
            .cls-14,
            .cls-18,
            .cls-19,
            .cls-20,
            .cls-22,
            .cls-4 {
                fill: none;
            }

            .cls-6 {
                stroke-width: 0.8px;
            }

            .cls-7 {
                stroke-width: 0.6px;
            }

            .cls-8 {
                stroke-width: 0.62px;
            }

            .cls-9 {
                fill: #f0ff64;
            }

            .cls-10,
            .cls-17 {
                fill: #fdb3ff;
            }

            .cls-11,
            .cls-16 {
                fill: #93dfff;
            }

            .cls-14 {
                stroke-miterlimit: 10;
                stroke-width: 1.08px;
            }

            .cls-15,
            .cls-16,
            .cls-17 {
                stroke-width: 1.05px;
            }

            .cls-18 {
                stroke-width: 1.78px;
            }

            .cls-19 {
                stroke-width: 2.37px;
            }

            .cls-20 {
                stroke-width: 3px;
            }

            .cls-21 {
                fill: #ffc;
            }

            .cls-22 {
                stroke-width: 1.5px;
                opacity: 0.8;
            }

            .cls-18,
            .cls-19,
            .cls-20 {
                opacity: 0;
            }

            /* 
            ######################
            ### ANIMATION AREA ###
            ######################
            */
            /* 
               zZz - Sleep Animation 
            */
            .cls-18 {
                animation: sleep1 6s infinite ease-in-out;
            }

            .cls-19 {
                animation: sleep2 6s infinite ease-in-out;
            }

            .cls-20 {
                animation: sleep3 6s infinite ease-in-out;
            }

            @keyframes sleep1 {
                30% {
                    opacity: 1;
                }

                60% {
                    opacity: 0;
                }
            }

            @keyframes sleep2 {
                20% {
                    opacity: 0;
                }

                50% {
                    opacity: 1;
                }

                80% {
                    opacity: 0;
                }
            }

            @keyframes sleep3 {
                40% {
                    opacity: 0;
                }

                70% {
                    opacity: 1;
                }

                90% {
                    opacity: 0;
                }
            }

            /* 
                Cloud Movement
            */
            #ErrorPage {
                animation: moveCloud 15s infinite ease-in-out;
            }

            @keyframes moveCloud {
                25% {
                    transform: translate(12px, -10px);
                }

                50% {
                    transform: translate(10px, 10px);
                }

                75% {
                    transform: translate(20px, -15px);
                }
            }

            /* 
                Letter Movement
            */
            .letter-edge {
                animation: letter1 9s infinite ease-in-out;
            }

            .letter {
                animation: letter1 9s infinite ease-in-out;
            }

            .letter-edge-2 {
                animation: letter2 11s infinite ease-in-out;
            }

            .letter-2 {
                animation: letter2 11s infinite ease-in-out;
            }
            .letter-edge-3 {
                animation: letter3 11s infinite ease-in-out;
            }

            .letter-3 {
                animation: letter3 11s infinite ease-in-out;
            }

            @keyframes letter1 {
                30% {
                    transform: translate(10px, 10px);
                }

                60% {
                    transform: translate(-5px, 0px);
                }
            }

            @keyframes letter2 {
                40% {
                    transform: translate(-10px, -5px);
                }

                80% {
                    transform: translate(12px, -8px);
                }
            }
            @keyframes letter3 {
                40% {
                    transform: translate(3px, 15px);
                }

                80% {
                    transform: translate(-4px, -8px);
                }
            }
        </style>
    </defs>
    <g id="Layer_2" data-name="Layer 2">
        <g id="v3Clouds">
            <g id="ErrorPage">
                <path class="cls-1"
                    d="M129.23,105.54c-.82-7.92-6.73-14.06-13.92-14.06a12.68,12.68,0,0,0-7.42,2.44A13.73,13.73,0,0,0,96,86.42c-7.74,0-14,7.14-14,15.94A17.5,17.5,0,0,0,84.22,111l-.49.32a16.77,16.77,0,0,0-13.37-1.81c-3.82-4.67-10.15-8.41-17.89-10.54,0-.22,0-.43,0-.65,0-8.81-6.27-15.94-14-15.94s-14,7.13-14,15.94c0,.08,0,.16,0,.24C10.74,101.82,1,110.09,1,119.78,1,127.29,6.84,134,15.86,138.1c0,0,0,0,0,.05,0,12.58,9.77,22.79,21.81,22.79a21.41,21.41,0,0,0,16.67-8.11,17.43,17.43,0,0,0,33-.45A21.61,21.61,0,0,0,96,154.21a22.3,22.3,0,0,0,20.14-13.27,32.75,32.75,0,0,0,4.8.36c13.58,0,24.6-8.25,24.6-18.43C145.51,114.89,138.72,108.09,129.23,105.54Z" />
                <path class="cls-2"
                    d="M2.56,124.89c3.12,6.12,15.06,8.43,30.76,4.88,2.18,10.61,8.39,16.32,22.54,12.38,15.24,11.8,29.32,3.13,30.65-4.42,12.71-4.91,22.62-3.16,30-12.84,10.73,2.69,16.14,6.49,29-2-1.11,12.33-11,18.29-29.4,18.07-6.48,11.25-16,15.37-28.82,11.44-11.15,15.86-22.13,15.94-33,.45C40.44,165.53,21,162.46,15.89,138.1l-7.47-4.57C6.18,131.43,1.9,128.42,2.56,124.89Z" />
                <path class="cls-3"
                    d="M41.32,83.09c-9,.41-15.49,14.46-14.09,19.06-13.36,2.95-24.3,9.7-26,18.68-.79-9.54,5.47-15.53,23.21-22.3C25.89,86,33.7,81.51,41.32,83.09Z" />
                <path class="cls-3"
                    d="M90.5,87.7c7.32-3,13-.39,17.42,6.22,11.57-6,17.64.2,21.34,11.62,9.07,1.72,13.61,8.09,16.25,16.4-6.07-9.47-10.61-14.48-18.5-12.58-2.51-21.8-16.45-13.86-19.42-11.58-6.37-11.69-14.6-9.47-20-7.19Z" />
                <path class="cls-4"
                    d="M129.26,105.54c-.82-7.92-6.73-14.06-13.91-14.06a12.73,12.73,0,0,0-7.43,2.44c-2.48-4.5-6.86-7.5-11.87-7.5-7.75,0-14,7.14-14,15.94A17.4,17.4,0,0,0,84.26,111l-.49.32a16.8,16.8,0,0,0-13.38-1.81c-3.82-4.67-10.14-8.41-17.88-10.54,0-.22,0-.43,0-.65,0-8.81-6.28-15.94-14-15.94s-14,7.13-14,15.94a1.93,1.93,0,0,0,0,.24C10.78,101.82,1,110.09,1,119.78,1,127.29,6.88,134,15.89,138.1v.05c0,12.58,9.76,22.79,21.81,22.79a21.4,21.4,0,0,0,16.66-8.11,17.43,17.43,0,0,0,33-.45A21.56,21.56,0,0,0,96,154.21a22.3,22.3,0,0,0,20.14-13.27,32.86,32.86,0,0,0,4.8.36c13.59,0,24.6-8.25,24.6-18.43C145.54,114.89,138.75,108.09,129.26,105.54Z" />
                <ellipse class="cls-5" cx="44.92" cy="123.86" rx="17.22" ry="14.74" />
                <ellipse class="cls-5" cx="87.58" cy="119.97" rx="17.22" ry="14.74" />
                <ellipse class="cls-6" cx="100.29" cy="133.53" rx="13.78" ry="11.8" />
                <ellipse class="cls-7" cx="41.95" cy="107.36" rx="10.34" ry="8.85" />
                <ellipse class="cls-8" cx="86.51" cy="104.19" rx="10.76" ry="9.21" />
                <ellipse class="cls-5" cx="65.64" cy="116.89" rx="17.22" ry="14.74" />
                <g id="right_horn">
                    <path class="cls-9"
                        d="M47.3,58.58S37.41,64.52,35.94,55c-.74-5.67,6.79-3.73,5.28.35,0,0,5.56-1.63,4.63-6.37-1.35-5-8.11-4.32-8.11-4.32s-13.15.62-9.15,14.13C31.07,66,42,69.37,43.13,65.9A41.28,41.28,0,0,1,47.3,58.58Z" />
                    <path class="cls-10"
                        d="M36,55.51s-4.91-1.31-7.56,2.86c1.11,3.64,4,6.17,7.91,8-1.85-5.69,1.8-6.87,1.8-6.87a6.58,6.58,0,0,1-2.21-4" />
                    <path class="cls-10"
                        d="M36.65,52.12c-1.9-4.51-6.85-3.8-6.85-3.8A12.07,12.07,0,0,1,43,45.55s.79,4.39-2.74,6.57A2.86,2.86,0,0,0,36.65,52.12Z" />
                </g>
                <g id="right_horn-2" data-name="right_horn">
                    <path class="cls-9"
                        d="M80.62,62s5.95,2.09,9.41-1.18a7.89,7.89,0,0,0,2.24-4.76c.74-5.66-6.79-3.72-5.27.35,0,0-5.57-1.63-4.64-6.36,1.35-5,8.11-4.32,8.11-4.32s13.15.62,9.15,14.12c-2.48,7.19-13.12,11.7-14.8,8.48C84.38,67.51,81.74,63.61,80.62,62Z" />
                    <path class="cls-10"
                        d="M90,60.84a6.31,6.31,0,0,0,2.16-4.25s4.9-1.31,7.56,2.85c-1.2,3.83-4,6.39-7.56,8.4,1.84-5.69-2.16-7-2.16-7" />
                    <path class="cls-10"
                        d="M91.57,53.2c1.89-4.52,6.85-3.81,6.85-3.81a12.15,12.15,0,0,0-13.2-2.76S84.42,51,88,53.2A2.86,2.86,0,0,1,91.57,53.2Z" />
                </g>
                <path id="body" class="cls-11"
                    d="M36.74,113.21,39,102.43l-3.21,2.86a57.93,57.93,0,0,1,4.32-18l-3.57,2s2.64-13.66,7.22-18.71L40.4,72.38s4.06-10.62,6.89-14a13.08,13.08,0,0,0-3.22,0,23.1,23.1,0,0,1,12.85-10c-3.69-5.3-4.78-5.57-4.78-5.57s7.53.81,9,2.19c1-1.65,5.63-3.72,7.92-3.08-1.58,3.61-1.62,4.7-1.62,4.7s8.53,2,12.82,6.51c-3.08-.55-4.44.19-4.44.19s3.51.87,7.57,7.73a11,11,0,0,0-3.67-.28S90,74.92,93.25,85.87c-3.07-2.8-3.43-2.75-3.43-2.75.46-.1,5.07,12.81,5.67,21.12l-3.77-2.56c.54,3.71,2.52,13.18,2.52,13.66a36.13,36.13,0,0,1-17.8,13.4c-1.41.49,3.6,1,2.14,1.28-2.77.59-12.93-.4-15.79-.49-1.86-.07,1.82,1.92,0,1.55C55.11,129.55,42.84,120.73,36.74,113.21Z" />
                <path class="cls-12"
                    d="M56.25,82.07s1.94,6.25,3.61,6.25,2.48-6.11,2.48-6.11-2.44,1-3.32,1.29l.35-2.64C58.54,81.18,56.86,81.79,56.25,82.07Z" />
                <path class="cls-12"
                    d="M74.72,81.88s-2,6.44-3.68,6.44S68.72,82,68.72,82l3.54,1.22c-.14-.4-.76-2-.82-2.44Z" />
                <path class="cls-13" d="M52.53,66.24q3.72-3.09,7.45-.19" />
                <path class="cls-13" d="M69.53,66.24q3.72-3.09,7.45-.19" />
                <path id="mustache_line" class="cls-13"
                    d="M51.14,77.05,49,80.43l3-.23,1.09,3.06,6.25-2.4L59,83.5a44.93,44.93,0,0,0,6.17-2.68l7.07,2.44-.82-2.44,6.29,2-.23-2.72,4,.39a7.37,7.37,0,0,0-1.43-2.76" />
                <path class="cls-14" d="M51.7,71.15a9.9,9.9,0,0,0,9.11,0" />
                <path class="cls-14" d="M68.91,71.15a9.9,9.9,0,0,0,9.11,0" />
                <path class="cls-15"
                    d="M37.2,107l.29,4.64a.85.85,0,0,0,1.23.71l3.22-1.59a.85.85,0,0,0,.18-1.4l-3.51-3A.85.85,0,0,0,37.2,107Z" />
                <path class="cls-15"
                    d="M54.63,107.1l-4,2.37a.85.85,0,0,0-.07,1.41L53.44,113a.85.85,0,0,0,1.33-.48L55.88,108A.84.84,0,0,0,54.63,107.1Z" />
                <path class="cls-15"
                    d="M45.91,104.42l-2.18,4.1a.86.86,0,0,0,.67,1.25l3.58.32a.84.84,0,0,0,.88-1.1l-1.39-4.43A.85.85,0,0,0,45.91,104.42Z" />
                <path class="cls-16"
                    d="M54.75,130.18c-.73.89-.63-1.52-1.25-.64a9.62,9.62,0,0,1-7.77,4.38,11,11,0,0,1-9.62-5.49c-.56-1-1.41,1.22-1.66,0-.11-.53-1.76-5.36.21-7.77-.24-.83-.88.57-.88,0a15.38,15.38,0,0,1,2.18-7c.53-1-1.81-.56-1-1.39,2.78-2.76,7.25-4.78,10.74-4.56,2.5.17,7.7,1.46,8.92,3.32.68,1-1.95.06-1,1a16.24,16.24,0,0,1,3.64,6.42c.26,1,.06.63-1.14,1.25C57.94,121.08,56.27,128.33,54.75,130.18Z" />
                <circle class="cls-17" cx="43.35" cy="124.89" r="4.88" />
                <circle class="cls-17" cx="39.51" cy="115.44" r="2.44" />
                <circle class="cls-17" cx="45.56" cy="112.53" r="2.44" />
                <circle class="cls-17" cx="50.67" cy="116.89" r="2.44" />
                <path class="cls-15"
                    d="M96.79,107l-.3,4.64a.84.84,0,0,1-1.22.71l-3.22-1.59a.85.85,0,0,1-.18-1.4l3.51-3A.85.85,0,0,1,96.79,107Z" />
                <path class="cls-15"
                    d="M79.36,107.06l4,2.37a.85.85,0,0,1,.07,1.41L80.55,113a.85.85,0,0,1-1.33-.48L78.1,108A.85.85,0,0,1,79.36,107.06Z" />
                <path class="cls-15"
                    d="M88.08,104.37l2.18,4.11a.85.85,0,0,1-.67,1.24l-3.58.33a.85.85,0,0,1-.89-1.1l1.4-4.43A.85.85,0,0,1,88.08,104.37Z" />
                <path class="cls-16"
                    d="M79.24,130.14c.73.89.62-1.52,1.25-.64a9.63,9.63,0,0,0,7.77,4.38,11,11,0,0,0,9.62-5.49c.56-1,1.41,1.22,1.66,0,.1-.53,1.76-5.36-.21-7.78.24-.82.88.58.88,0a15.38,15.38,0,0,0-2.18-7c-.53-1,1.81-.56,1-1.39-2.79-2.76-7.25-4.78-10.74-4.57-2.5.18-7.7,1.47-8.92,3.33-.68,1,2,.06,1,1a16.12,16.12,0,0,0-3.64,6.42c-.26,1-.06.62,1.14,1.25C76.05,121,77.72,128.29,79.24,130.14Z" />
                <circle class="cls-17" cx="90.64" cy="124.84" r="4.88" />
                <circle class="cls-17" cx="94.48" cy="115.4" r="2.44" />
                <circle class="cls-17" cx="88.43" cy="112.49" r="2.44" />
                <circle class="cls-17" cx="83.32" cy="116.85" r="2.44" />
                <polyline class="cls-18" points="100.09 33.46 110.95 34.58 98.42 40.85 110.24 43.7" />
                <polyline class="cls-19" points="112.44 18.08 125.27 17.09 110.95 26.05 127.51 29.92" />
                <polyline class="cls-20" points="141.88 1.5 160.29 5.18 139.31 14.65 157.59 23.5" />
                <polygon class="cls-21" points="45.96 136.56 22.43 133.6 26.39 121.81 50.44 121.75 45.96 136.56" />
                <polyline class="cls-13" points="26.39 121.81 34.22 127.58 50.44 121.75" />
                <polygon class="cls-21 letter-3"
                    points="211.32 59.89 186.4 52.22 186.4 36.89 211.32 44.55 211.32 59.89" />
                <polygon class="cls-21 letter-2"
                    points="157.72 70.08 163.26 66.68 161.73 63.31 139.31 56.11 142.26 74.87 160.39 79.45 157.72 70.08" />
                <polygon class="cls-21 letter"
                    points="98.29 3.26 92.39 6.96 91.92 18.08 88.54 20.5 68.05 22.47 73.8 6.42 98 2.53 98.29 3.26" />
                <polyline class="cls-13 letter-edge-2" points="139.31 56.11 156.95 72.83 158.3 72.12" />
                <polyline class="cls-13 letter-edge" points="92.22 11.07 85.76 15.29 73.89 6.54" />
                <path class="cls-1"
                    d="M85.75,133.53c0-4.38-2.73-7.93-6.1-7.93-2.39,0-4.46,1.8-5.46,4.4a7.47,7.47,0,0,0-4.94-6c-5.62-1.27-10.43,5.18-7.58,8.37" />
                <polygon class="cls-21" points="119.42 129.79 97.96 147.71 83.17 140.17 105.89 123.51 119.42 129.79" />
                <polyline class="cls-13 letter-edge-3" points="186.4 36.89 198.86 49.6 211.32 44.55" />
                <polyline class="cls-13" points="83.17 140.17 104.06 136.27 105.89 123.51" />
                <polygon class="cls-21" points="120.14 133.41 94.29 144.04 82.45 132.41 109.13 123.35 120.14 133.41" />
                <polyline class="cls-13" points="82.45 132.41 103.54 134.97 109.13 123.35" />
                <path class="cls-22"
                    d="M56.25,45a4.29,4.29,0,0,1,3.73,4c-5.82,1.87-11.12,4-12.68,7.78a5.56,5.56,0,0,1,3.49,1.06,23,23,0,0,0-6.86,10.35H47.3c-2.95,4.78-4.2,6.83-6,12.58" />
                <path class="cls-22" d="M85.93,52.14c1.71-2.45,6.33-4,8.53.12,1.39,3,.5,7.39-3.57,10.83" />
                <path class="cls-22"
                    d="M43.93,48.39c-2.8-2.67-7.24-2.62-10.61-1-3,1.47-3.6,5.06-3.52,8.55.09,4.38,4,7.28,4.37,7.54" />
                <path class="cls-2"
                    d="M126.25,113.42c-5.54,2.68-14.48,2.33-20.22,1.65.29,2.08,8.24,4.36,10.83,4.22C120.65,119.29,126.7,117.14,126.25,113.42Z" />
            </g>
        </g>
    </g>
</svg>